<mxfile host="app.diagrams.net" agent="Mozilla/5.0 (Macintosh; Intel Mac OS X 10_15_7) AppleWebKit/537.36 (KHTML, like Gecko) Chrome/126.0.0.0 Safari/537.36" version="24.7.6">
  <diagram id="Ht1M8jgEwFfnCIfOTk4-" name="Page-1">
    <mxGraphModel dx="2195" dy="651" grid="1" gridSize="10" guides="1" tooltips="1" connect="1" arrows="1" fold="1" page="1" pageScale="1" pageWidth="1169" pageHeight="827" math="0" shadow="0">
      <root>
        <mxCell id="0" />
        <mxCell id="1" parent="0" />
        <mxCell id="WqXbRYlZZeFIAOz6uCfA-32" value="Availability Zone" style="fillColor=none;strokeColor=#147EBA;dashed=1;verticalAlign=top;fontStyle=0;fontColor=#147EBA;whiteSpace=wrap;html=1;container=0;" parent="1" vertex="1">
          <mxGeometry x="110" y="600" width="980" height="253" as="geometry" />
        </mxCell>
        <mxCell id="4xlNcZmjdb_tapX20zbH-10" value="Availability Zone" style="fillColor=none;strokeColor=#147EBA;dashed=1;verticalAlign=top;fontStyle=0;fontColor=#147EBA;whiteSpace=wrap;html=1;container=0;" parent="1" vertex="1">
          <mxGeometry x="110" y="187.31" width="980" height="253" as="geometry" />
        </mxCell>
        <mxCell id="4xlNcZmjdb_tapX20zbH-118" style="edgeStyle=orthogonalEdgeStyle;rounded=0;orthogonalLoop=1;jettySize=auto;html=1;entryX=1;entryY=0.5;entryDx=0;entryDy=0;entryPerimeter=0;" parent="1" source="4xlNcZmjdb_tapX20zbH-84" target="4xlNcZmjdb_tapX20zbH-87" edge="1">
          <mxGeometry relative="1" as="geometry">
            <Array as="points">
              <mxPoint x="-90" y="785" />
            </Array>
          </mxGeometry>
        </mxCell>
        <mxCell id="WqXbRYlZZeFIAOz6uCfA-7" value="Get latest code" style="edgeLabel;html=1;align=center;verticalAlign=bottom;resizable=0;points=[];labelPosition=center;verticalLabelPosition=top;" parent="4xlNcZmjdb_tapX20zbH-118" vertex="1" connectable="0">
          <mxGeometry x="0.4825" y="-2" relative="1" as="geometry">
            <mxPoint x="38" as="offset" />
          </mxGeometry>
        </mxCell>
        <mxCell id="4xlNcZmjdb_tapX20zbH-6" value="AWS Cloud" style="points=[[0,0],[0.25,0],[0.5,0],[0.75,0],[1,0],[1,0.25],[1,0.5],[1,0.75],[1,1],[0.75,1],[0.5,1],[0.25,1],[0,1],[0,0.75],[0,0.5],[0,0.25]];outlineConnect=0;gradientColor=none;html=1;whiteSpace=wrap;fontSize=12;fontStyle=0;container=0;pointerEvents=0;collapsible=0;recursiveResize=0;shape=mxgraph.aws4.group;grIcon=mxgraph.aws4.group_aws_cloud;strokeColor=#232F3E;fillColor=none;verticalAlign=top;align=left;spacingLeft=30;fontColor=#232F3E;dashed=0;" parent="1" vertex="1">
          <mxGeometry x="-160" y="40" width="1360" height="960" as="geometry" />
        </mxCell>
        <mxCell id="4xlNcZmjdb_tapX20zbH-9" value="VPC" style="points=[[0,0],[0.25,0],[0.5,0],[0.75,0],[1,0],[1,0.25],[1,0.5],[1,0.75],[1,1],[0.75,1],[0.5,1],[0.25,1],[0,1],[0,0.75],[0,0.5],[0,0.25]];outlineConnect=0;gradientColor=none;html=1;whiteSpace=wrap;fontSize=12;fontStyle=0;container=0;pointerEvents=0;collapsible=0;recursiveResize=0;shape=mxgraph.aws4.group;grIcon=mxgraph.aws4.group_vpc2;strokeColor=#8C4FFF;fillColor=none;verticalAlign=top;align=left;spacingLeft=30;fontColor=#AAB7B8;dashed=0;" parent="1" vertex="1">
          <mxGeometry x="120" y="120" width="960" height="800" as="geometry" />
        </mxCell>
        <mxCell id="4xlNcZmjdb_tapX20zbH-8" value="Region" style="points=[[0,0],[0.25,0],[0.5,0],[0.75,0],[1,0],[1,0.25],[1,0.5],[1,0.75],[1,1],[0.75,1],[0.5,1],[0.25,1],[0,1],[0,0.75],[0,0.5],[0,0.25]];outlineConnect=0;gradientColor=none;html=1;whiteSpace=wrap;fontSize=12;fontStyle=0;container=0;pointerEvents=0;collapsible=0;recursiveResize=0;shape=mxgraph.aws4.group;grIcon=mxgraph.aws4.group_region;strokeColor=#00A4A6;fillColor=none;verticalAlign=top;align=left;spacingLeft=30;fontColor=#147EBA;dashed=1;" parent="1" vertex="1">
          <mxGeometry x="80" y="80" width="1040" height="880" as="geometry" />
        </mxCell>
        <mxCell id="4xlNcZmjdb_tapX20zbH-46" value="Auto Scaling group" style="points=[[0,0],[0.25,0],[0.5,0],[0.75,0],[1,0],[1,0.25],[1,0.5],[1,0.75],[1,1],[0.75,1],[0.5,1],[0.25,1],[0,1],[0,0.75],[0,0.5],[0,0.25]];outlineConnect=0;gradientColor=none;html=1;whiteSpace=wrap;fontSize=12;fontStyle=0;container=0;pointerEvents=0;collapsible=0;recursiveResize=0;shape=mxgraph.aws4.groupCenter;grIcon=mxgraph.aws4.group_auto_scaling_group;grStroke=1;strokeColor=#D86613;fillColor=none;verticalAlign=top;align=center;fontColor=#D86613;dashed=1;spacingTop=25;" parent="1" vertex="1">
          <mxGeometry x="240" y="140" width="240" height="760" as="geometry" />
        </mxCell>
        <mxCell id="4xlNcZmjdb_tapX20zbH-85" style="edgeStyle=orthogonalEdgeStyle;rounded=0;orthogonalLoop=1;jettySize=auto;html=1;labelPosition=center;verticalLabelPosition=top;align=center;verticalAlign=bottom;" parent="1" source="4xlNcZmjdb_tapX20zbH-84" target="4xlNcZmjdb_tapX20zbH-61" edge="1">
          <mxGeometry relative="1" as="geometry">
            <Array as="points">
              <mxPoint x="-56" y="520" />
            </Array>
          </mxGeometry>
        </mxCell>
        <mxCell id="4xlNcZmjdb_tapX20zbH-94" value="Trigger Block/Allow Traffic" style="edgeLabel;html=1;align=center;verticalAlign=bottom;resizable=0;points=[];labelPosition=center;verticalLabelPosition=top;" parent="4xlNcZmjdb_tapX20zbH-85" vertex="1" connectable="0">
          <mxGeometry relative="1" as="geometry">
            <mxPoint y="-3" as="offset" />
          </mxGeometry>
        </mxCell>
        <mxCell id="4xlNcZmjdb_tapX20zbH-104" style="edgeStyle=orthogonalEdgeStyle;rounded=0;orthogonalLoop=1;jettySize=auto;html=1;" parent="1" source="4xlNcZmjdb_tapX20zbH-84" target="4xlNcZmjdb_tapX20zbH-103" edge="1">
          <mxGeometry relative="1" as="geometry">
            <Array as="points">
              <mxPoint x="-90" y="370" />
              <mxPoint x="-90" y="370" />
            </Array>
          </mxGeometry>
        </mxCell>
        <mxCell id="4xlNcZmjdb_tapX20zbH-105" value="Finish deploy" style="edgeLabel;html=1;align=center;verticalAlign=middle;resizable=0;points=[];" parent="4xlNcZmjdb_tapX20zbH-104" vertex="1" connectable="0">
          <mxGeometry x="0.6088" relative="1" as="geometry">
            <mxPoint as="offset" />
          </mxGeometry>
        </mxCell>
        <mxCell id="4xlNcZmjdb_tapX20zbH-86" value="Version Control System" style="fillColor=none;strokeColor=#5A6C86;dashed=1;verticalAlign=top;fontStyle=0;fontColor=#5A6C86;whiteSpace=wrap;html=1;" parent="1" vertex="1">
          <mxGeometry x="-380" y="705" width="160" height="160" as="geometry" />
        </mxCell>
        <mxCell id="4xlNcZmjdb_tapX20zbH-87" value="&amp;nbsp;Github&amp;nbsp;" style="verticalLabelPosition=bottom;html=1;verticalAlign=top;align=center;strokeColor=none;fillColor=#00BEF2;shape=mxgraph.azure.github_code;pointerEvents=1;aspect=fixed;labelBackgroundColor=default;labelBorderColor=#0000FF;" parent="1" vertex="1">
          <mxGeometry x="-330" y="755" width="60" height="60" as="geometry" />
        </mxCell>
        <mxCell id="WqXbRYlZZeFIAOz6uCfA-2" style="edgeStyle=orthogonalEdgeStyle;rounded=0;orthogonalLoop=1;jettySize=auto;html=1;" parent="1" source="4xlNcZmjdb_tapX20zbH-90" target="4xlNcZmjdb_tapX20zbH-91" edge="1">
          <mxGeometry relative="1" as="geometry" />
        </mxCell>
        <mxCell id="4xlNcZmjdb_tapX20zbH-90" value="&amp;nbsp;Deployment Admin&amp;nbsp;" style="shadow=0;dashed=0;html=1;strokeColor=none;fillColor=#4495D1;labelPosition=center;verticalLabelPosition=bottom;verticalAlign=top;align=center;outlineConnect=0;shape=mxgraph.veeam.portal_admin;aspect=fixed;labelBackgroundColor=default;labelBorderColor=none;" parent="1" vertex="1">
          <mxGeometry x="-540" y="495" width="50" height="50" as="geometry" />
        </mxCell>
        <mxCell id="WqXbRYlZZeFIAOz6uCfA-1" style="edgeStyle=orthogonalEdgeStyle;rounded=0;orthogonalLoop=1;jettySize=auto;html=1;" parent="1" source="4xlNcZmjdb_tapX20zbH-91" target="4xlNcZmjdb_tapX20zbH-84" edge="1">
          <mxGeometry relative="1" as="geometry" />
        </mxCell>
        <mxCell id="4xlNcZmjdb_tapX20zbH-91" value="Internet" style="image;perimeter=ellipsePerimeter;html=1;align=center;shadow=0;dashed=0;spacingTop=3;image=img/lib/active_directory/internet_cloud.svg;aspect=fixed;" parent="1" vertex="1">
          <mxGeometry x="-329" y="503.25" width="50" height="31.5" as="geometry" />
        </mxCell>
        <mxCell id="4xlNcZmjdb_tapX20zbH-109" style="edgeStyle=orthogonalEdgeStyle;rounded=0;orthogonalLoop=1;jettySize=auto;html=1;" parent="1" source="4xlNcZmjdb_tapX20zbH-103" target="4xlNcZmjdb_tapX20zbH-107" edge="1">
          <mxGeometry relative="1" as="geometry" />
        </mxCell>
        <mxCell id="4xlNcZmjdb_tapX20zbH-110" value="Send deploy result notifications" style="edgeLabel;html=1;align=center;verticalAlign=bottom;resizable=0;points=[];labelPosition=center;verticalLabelPosition=top;" parent="4xlNcZmjdb_tapX20zbH-109" vertex="1" connectable="0">
          <mxGeometry x="-0.0255" y="-5" relative="1" as="geometry">
            <mxPoint as="offset" />
          </mxGeometry>
        </mxCell>
        <mxCell id="4xlNcZmjdb_tapX20zbH-103" value="&amp;nbsp;Simple Notification Service&amp;nbsp;" style="sketch=0;points=[[0,0,0],[0.25,0,0],[0.5,0,0],[0.75,0,0],[1,0,0],[0,1,0],[0.25,1,0],[0.5,1,0],[0.75,1,0],[1,1,0],[0,0.25,0],[0,0.5,0],[0,0.75,0],[1,0.25,0],[1,0.5,0],[1,0.75,0]];outlineConnect=0;fontColor=#232F3E;fillColor=#E7157B;strokeColor=#ffffff;dashed=0;verticalLabelPosition=bottom;verticalAlign=top;align=center;html=1;fontSize=12;fontStyle=0;aspect=fixed;shape=mxgraph.aws4.resourceIcon;resIcon=mxgraph.aws4.sns;labelBackgroundColor=default;labelBorderColor=#0000FF;" parent="1" vertex="1">
          <mxGeometry x="-118" y="135" width="60" height="60" as="geometry" />
        </mxCell>
        <mxCell id="4xlNcZmjdb_tapX20zbH-107" value="Developers &amp;amp; Testers" style="sketch=0;outlineConnect=0;fontColor=#232F3E;gradientColor=none;fillColor=#232F3D;strokeColor=none;dashed=0;verticalLabelPosition=bottom;verticalAlign=top;align=center;html=1;fontSize=12;fontStyle=0;aspect=fixed;pointerEvents=1;shape=mxgraph.aws4.users;labelBackgroundColor=default;" parent="1" vertex="1">
          <mxGeometry x="-539" y="135" width="60" height="60" as="geometry" />
        </mxCell>
        <mxCell id="WqXbRYlZZeFIAOz6uCfA-13" value="" style="group" parent="1" vertex="1" connectable="0">
          <mxGeometry x="270" y="232" width="182.38" height="157.12000000000003" as="geometry" />
        </mxCell>
        <mxCell id="4xlNcZmjdb_tapX20zbH-16" value="Public subnet" style="points=[[0,0],[0.25,0],[0.5,0],[0.75,0],[1,0],[1,0.25],[1,0.5],[1,0.75],[1,1],[0.75,1],[0.5,1],[0.25,1],[0,1],[0,0.75],[0,0.5],[0,0.25]];outlineConnect=0;gradientColor=none;html=1;whiteSpace=wrap;fontSize=12;fontStyle=0;container=0;pointerEvents=0;collapsible=0;recursiveResize=0;shape=mxgraph.aws4.group;grIcon=mxgraph.aws4.group_security_group;grStroke=0;strokeColor=#7AA116;fillColor=#F2F6E8;verticalAlign=top;align=left;spacingLeft=30;fontColor=#248814;dashed=0;aspect=fixed;" parent="WqXbRYlZZeFIAOz6uCfA-13" vertex="1">
          <mxGeometry width="182.38" height="157.12" as="geometry" />
        </mxCell>
        <mxCell id="4xlNcZmjdb_tapX20zbH-27" value="&amp;nbsp;EC2 Instance&amp;nbsp;" style="sketch=0;points=[[0,0,0],[0.25,0,0],[0.5,0,0],[0.75,0,0],[1,0,0],[0,1,0],[0.25,1,0],[0.5,1,0],[0.75,1,0],[1,1,0],[0,0.25,0],[0,0.5,0],[0,0.75,0],[1,0.25,0],[1,0.5,0],[1,0.75,0]];outlineConnect=0;fontColor=#232F3E;fillColor=#ED7100;strokeColor=#ffffff;dashed=0;verticalLabelPosition=bottom;verticalAlign=top;align=center;html=1;fontSize=12;fontStyle=0;aspect=fixed;shape=mxgraph.aws4.resourceIcon;resIcon=mxgraph.aws4.ec2;labelBorderColor=#FFFF88;labelBackgroundColor=default;" parent="WqXbRYlZZeFIAOz6uCfA-13" vertex="1">
          <mxGeometry x="61.19" y="48.54999999999998" width="60" height="60" as="geometry" />
        </mxCell>
        <mxCell id="WqXbRYlZZeFIAOz6uCfA-14" value="" style="group" parent="1" vertex="1" connectable="0">
          <mxGeometry x="780" y="231" width="182" height="157" as="geometry" />
        </mxCell>
        <mxCell id="4xlNcZmjdb_tapX20zbH-21" value="Private subnet" style="points=[[0,0],[0.25,0],[0.5,0],[0.75,0],[1,0],[1,0.25],[1,0.5],[1,0.75],[1,1],[0.75,1],[0.5,1],[0.25,1],[0,1],[0,0.75],[0,0.5],[0,0.25]];outlineConnect=0;gradientColor=none;html=1;whiteSpace=wrap;fontSize=12;fontStyle=0;container=0;pointerEvents=0;collapsible=0;recursiveResize=0;shape=mxgraph.aws4.group;grIcon=mxgraph.aws4.group_security_group;grStroke=0;strokeColor=#00A4A6;fillColor=#E6F6F7;verticalAlign=top;align=left;spacingLeft=30;fontColor=#147EBA;dashed=0;" parent="WqXbRYlZZeFIAOz6uCfA-14" vertex="1">
          <mxGeometry width="182" height="157" as="geometry" />
        </mxCell>
        <mxCell id="4xlNcZmjdb_tapX20zbH-29" value="&amp;nbsp;Primary RDS Instance&amp;nbsp;" style="sketch=0;outlineConnect=0;fontColor=#232F3E;gradientColor=none;fillColor=#C925D1;strokeColor=none;dashed=0;verticalLabelPosition=bottom;verticalAlign=top;align=center;html=1;fontSize=12;fontStyle=0;aspect=fixed;pointerEvents=1;shape=mxgraph.aws4.rds_instance;labelBorderColor=#FFFF88;labelBackgroundColor=default;" parent="WqXbRYlZZeFIAOz6uCfA-14" vertex="1">
          <mxGeometry x="61" y="48.5" width="60" height="60" as="geometry" />
        </mxCell>
        <mxCell id="WqXbRYlZZeFIAOz6uCfA-34" value="" style="group" parent="1" vertex="1" connectable="0">
          <mxGeometry x="270" y="644.69" width="182.38" height="157.12000000000003" as="geometry" />
        </mxCell>
        <mxCell id="WqXbRYlZZeFIAOz6uCfA-35" value="Public subnet" style="points=[[0,0],[0.25,0],[0.5,0],[0.75,0],[1,0],[1,0.25],[1,0.5],[1,0.75],[1,1],[0.75,1],[0.5,1],[0.25,1],[0,1],[0,0.75],[0,0.5],[0,0.25]];outlineConnect=0;gradientColor=none;html=1;whiteSpace=wrap;fontSize=12;fontStyle=0;container=0;pointerEvents=0;collapsible=0;recursiveResize=0;shape=mxgraph.aws4.group;grIcon=mxgraph.aws4.group_security_group;grStroke=0;strokeColor=#7AA116;fillColor=#F2F6E8;verticalAlign=top;align=left;spacingLeft=30;fontColor=#248814;dashed=0;aspect=fixed;" parent="WqXbRYlZZeFIAOz6uCfA-34" vertex="1">
          <mxGeometry width="182.38" height="157.12" as="geometry" />
        </mxCell>
        <mxCell id="WqXbRYlZZeFIAOz6uCfA-47" style="edgeStyle=orthogonalEdgeStyle;rounded=0;orthogonalLoop=1;jettySize=auto;html=1;" parent="WqXbRYlZZeFIAOz6uCfA-34" source="WqXbRYlZZeFIAOz6uCfA-36" edge="1">
          <mxGeometry relative="1" as="geometry">
            <mxPoint x="570" y="-334.69000000000005" as="targetPoint" />
            <Array as="points">
              <mxPoint x="260" y="78" />
              <mxPoint x="260" y="-335" />
            </Array>
          </mxGeometry>
        </mxCell>
        <mxCell id="WqXbRYlZZeFIAOz6uCfA-36" value="&amp;nbsp;EC2 Instance&amp;nbsp;" style="sketch=0;points=[[0,0,0],[0.25,0,0],[0.5,0,0],[0.75,0,0],[1,0,0],[0,1,0],[0.25,1,0],[0.5,1,0],[0.75,1,0],[1,1,0],[0,0.25,0],[0,0.5,0],[0,0.75,0],[1,0.25,0],[1,0.5,0],[1,0.75,0]];outlineConnect=0;fontColor=#232F3E;fillColor=#ED7100;strokeColor=#ffffff;dashed=0;verticalLabelPosition=bottom;verticalAlign=top;align=center;html=1;fontSize=12;fontStyle=0;aspect=fixed;shape=mxgraph.aws4.resourceIcon;resIcon=mxgraph.aws4.ec2;labelBorderColor=#FFFF88;labelBackgroundColor=default;" parent="WqXbRYlZZeFIAOz6uCfA-34" vertex="1">
          <mxGeometry x="61.19" y="48.54999999999998" width="60" height="60" as="geometry" />
        </mxCell>
        <mxCell id="WqXbRYlZZeFIAOz6uCfA-37" value="" style="group" parent="1" vertex="1" connectable="0">
          <mxGeometry x="780" y="643.69" width="182" height="157" as="geometry" />
        </mxCell>
        <mxCell id="WqXbRYlZZeFIAOz6uCfA-38" value="Private subnet" style="points=[[0,0],[0.25,0],[0.5,0],[0.75,0],[1,0],[1,0.25],[1,0.5],[1,0.75],[1,1],[0.75,1],[0.5,1],[0.25,1],[0,1],[0,0.75],[0,0.5],[0,0.25]];outlineConnect=0;gradientColor=none;html=1;whiteSpace=wrap;fontSize=12;fontStyle=0;container=0;pointerEvents=0;collapsible=0;recursiveResize=0;shape=mxgraph.aws4.group;grIcon=mxgraph.aws4.group_security_group;grStroke=0;strokeColor=#00A4A6;fillColor=#E6F6F7;verticalAlign=top;align=left;spacingLeft=30;fontColor=#147EBA;dashed=0;" parent="WqXbRYlZZeFIAOz6uCfA-37" vertex="1">
          <mxGeometry width="182" height="157" as="geometry" />
        </mxCell>
        <mxCell id="WqXbRYlZZeFIAOz6uCfA-39" value="&amp;nbsp;Standby RDS Instance&amp;nbsp;" style="sketch=0;outlineConnect=0;fontColor=#232F3E;gradientColor=none;fillColor=#C925D1;strokeColor=none;dashed=0;verticalLabelPosition=bottom;verticalAlign=top;align=center;html=1;fontSize=12;fontStyle=0;aspect=fixed;pointerEvents=1;shape=mxgraph.aws4.rds_instance;labelBorderColor=#FFFF88;labelBackgroundColor=default;" parent="WqXbRYlZZeFIAOz6uCfA-37" vertex="1">
          <mxGeometry x="61" y="48.5" width="60" height="60" as="geometry" />
        </mxCell>
        <mxCell id="WqXbRYlZZeFIAOz6uCfA-46" style="edgeStyle=orthogonalEdgeStyle;rounded=0;orthogonalLoop=1;jettySize=auto;html=1;" parent="1" source="4xlNcZmjdb_tapX20zbH-27" target="4xlNcZmjdb_tapX20zbH-29" edge="1">
          <mxGeometry relative="1" as="geometry" />
        </mxCell>
        <mxCell id="WqXbRYlZZeFIAOz6uCfA-48" style="edgeStyle=orthogonalEdgeStyle;rounded=0;orthogonalLoop=1;jettySize=auto;html=1;entryX=0;entryY=0.5;entryDx=0;entryDy=0;entryPerimeter=0;" parent="1" source="4xlNcZmjdb_tapX20zbH-61" target="4xlNcZmjdb_tapX20zbH-27" edge="1">
          <mxGeometry relative="1" as="geometry">
            <Array as="points">
              <mxPoint x="168" y="311" />
            </Array>
          </mxGeometry>
        </mxCell>
        <mxCell id="WqXbRYlZZeFIAOz6uCfA-49" style="edgeStyle=orthogonalEdgeStyle;rounded=0;orthogonalLoop=1;jettySize=auto;html=1;entryX=0;entryY=0.5;entryDx=0;entryDy=0;entryPerimeter=0;" parent="1" source="4xlNcZmjdb_tapX20zbH-61" target="WqXbRYlZZeFIAOz6uCfA-36" edge="1">
          <mxGeometry relative="1" as="geometry">
            <Array as="points">
              <mxPoint x="170" y="723" />
            </Array>
          </mxGeometry>
        </mxCell>
        <mxCell id="WqXbRYlZZeFIAOz6uCfA-50" style="edgeStyle=orthogonalEdgeStyle;rounded=0;orthogonalLoop=1;jettySize=auto;html=1;entryX=0;entryY=0.5;entryDx=0;entryDy=0;entryPerimeter=0;" parent="1" source="4xlNcZmjdb_tapX20zbH-84" target="4xlNcZmjdb_tapX20zbH-27" edge="1">
          <mxGeometry relative="1" as="geometry">
            <Array as="points">
              <mxPoint x="-70" y="311" />
            </Array>
          </mxGeometry>
        </mxCell>
        <mxCell id="WqXbRYlZZeFIAOz6uCfA-51" style="edgeStyle=orthogonalEdgeStyle;rounded=0;orthogonalLoop=1;jettySize=auto;html=1;entryX=0;entryY=0.5;entryDx=0;entryDy=0;entryPerimeter=0;" parent="1" source="4xlNcZmjdb_tapX20zbH-84" target="WqXbRYlZZeFIAOz6uCfA-36" edge="1">
          <mxGeometry relative="1" as="geometry">
            <Array as="points">
              <mxPoint x="-70" y="723" />
            </Array>
          </mxGeometry>
        </mxCell>
        <mxCell id="4xlNcZmjdb_tapX20zbH-61" value="&amp;nbsp;Application Load Balancer&amp;nbsp;" style="sketch=0;outlineConnect=0;fontColor=#232F3E;gradientColor=none;fillColor=#8C4FFF;strokeColor=none;dashed=0;verticalLabelPosition=bottom;verticalAlign=top;align=center;html=1;fontSize=12;fontStyle=0;aspect=fixed;pointerEvents=1;shape=mxgraph.aws4.application_load_balancer;labelBackgroundColor=default;labelBorderColor=#0000FF;" parent="1" vertex="1">
          <mxGeometry x="138" y="490" width="60" height="60" as="geometry" />
        </mxCell>
        <mxCell id="4xlNcZmjdb_tapX20zbH-84" value="&amp;nbsp;CodeDeploy Service&amp;nbsp;" style="sketch=0;points=[[0,0,0],[0.25,0,0],[0.5,0,0],[0.75,0,0],[1,0,0],[0,1,0],[0.25,1,0],[0.5,1,0],[0.75,1,0],[1,1,0],[0,0.25,0],[0,0.5,0],[0,0.75,0],[1,0.25,0],[1,0.5,0],[1,0.75,0]];outlineConnect=0;fontColor=#232F3E;fillColor=#C925D1;strokeColor=#ffffff;dashed=0;verticalLabelPosition=bottom;verticalAlign=top;align=center;html=1;fontSize=12;fontStyle=0;aspect=fixed;shape=mxgraph.aws4.resourceIcon;resIcon=mxgraph.aws4.codedeploy;labelBackgroundColor=default;labelBorderColor=#0000FF;" parent="1" vertex="1">
          <mxGeometry x="-107" y="489" width="60" height="60" as="geometry" />
        </mxCell>
      </root>
    </mxGraphModel>
  </diagram>
</mxfile>
